<?xml version="1.0" encoding="UTF-8"?>
<svg id="articles" xmlns="http://www.w3.org/2000/svg" version="1.1" viewBox="0 0 640 360">
  <!-- Generator: Adobe Illustrator 30.0.0, SVG Export Plug-In . SVG Version: 2.1.1 Build 123)  -->
  <defs>
    <style>
      .st0 {
        fill: none;
      }

      .st1 {
        fill: #00a2ff;
        isolation: isolate;
        opacity: .3;
      }
    </style>
  </defs>
  <path class="st0" d="M212,72h216v216h-216V72Z"/>
  <path class="st1" d="M347,132c-6.63,0-11.96,5.37-11.96,12s5.42,12,12.04,12,12-5.37,12-12-5.37-12-12-12h-.09,0Z"/>
  <path class="st1" d="M376.89,191.77c1.53-1.59,1.48-4.12-.11-5.66-9.88-9.51-22.66-9.51-32.6.05l-6.17,6.17-24.23-24.23c-9.89-9.51-22.66-9.51-32.6.05l-38.17,38.17v-80.34c0-12.68,10.32-23,23-23h108c12.68,0,23,10.32,23,23v63c0,2.21,1.79,4,4,4s4-1.79,4-4v-63c0-17.09-13.91-31-31-31h-108c-17.09,0-31,13.91-31,31v90h0v18c0,17.09,13.91,31,31,31h63c2.21,0,4-1.79,4-4s-1.79-4-4-4h-63c-12.68,0-23-10.32-23-23v-16.34l43.77-43.77c6.82-6.56,14.64-6.56,21.4-.05l27,27c.78.78,1.8,1.17,2.83,1.17h0c1.02,0,2.05-.39,2.83-1.17l8.95-8.95c6.82-6.56,14.64-6.56,21.45,0,1.59,1.53,4.12,1.49,5.66-.11h-.01Z"/>
  <path class="st1" d="M393.15,247.5l19.67-19.67c1.56-1.56,1.56-4.09,0-5.66-1.56-1.56-4.1-1.56-5.66,0l-19.67,19.67-19.67-19.67c-1.56-1.56-4.1-1.56-5.66,0s-1.56,4.09,0,5.66l19.67,19.67-19.67,19.67c-1.56,1.56-1.56,4.09,0,5.66.78.78,1.8,1.17,2.83,1.17s2.05-.39,2.83-1.17l19.67-19.67,19.67,19.67c.78.78,1.8,1.17,2.83,1.17s2.05-.39,2.83-1.17c1.56-1.56,1.56-4.09,0-5.66l-19.67-19.67h0Z"/>
</svg>