<?xml version="1.0" encoding="UTF-8"?>
<svg id="Layer_1" xmlns="http://www.w3.org/2000/svg" version="1.1" viewBox="0 0 256 256">
  <!-- Generator: Adobe Illustrator 30.0.0, SVG Export Plug-In . SVG Version: 2.1.1 Build 123)  -->
  <defs>
    <style>
      .st0 {
        fill: #00a2ff;
        isolation: isolate;
        opacity: .75;
      }
    </style>
  </defs>
  <rect class="st0" x="42.96" y="32" width="48.09" height="192"/>
  <path class="st0" d="M178.08,73.88l34.97-.12v-41.76h-45.73c-1.69,0-3.27.02-5.49.15-5.91.35-11.75,1.27-17.47,2.75-12.76,3.15-24.33,9.75-33.36,19.01-12.24,12.54-19.46,29.42-19.95,47.35,0,.24-.02.49-.03.73l-14.04-14.04-34.03,34,48.09,48.09,19.94,19.94,34,34h68.05l-68.02-68.02c-8.71-8.71-14.1-20.74-14.1-34.02s5.4-25.32,14.1-34.02,20.16-13.8,33.06-14.05v.02h0Z"/>
</svg>