<?xml version="1.0" encoding="UTF-8"?>
<svg id="Layer_1" xmlns="http://www.w3.org/2000/svg" version="1.1" viewBox="0 0 256 256">
  <!-- Generator: Adobe Illustrator 29.8.1, SVG Export Plug-In . SVG Version: 2.1.1 Build 2)  -->
  <defs>
    <style>
      .st0 {
        fill: #00a2ff;
        isolation: isolate;
        opacity: .75;
      }
    </style>
  </defs>
  <rect class="st0" x="14.61" width="64.13" height="256"/>
  <path class="st0" d="M194.77,55.84l46.63-.16V0h-60.97c-2.25,0-4.36.02-7.32.2-7.87.46-15.67,1.69-23.29,3.67-17.02,4.21-32.43,13-44.48,25.35-16.33,16.73-25.94,39.22-26.6,63.13,0,.32-.03.65-.04.97l-18.72-18.72L14.61,119.94l64.13,64.13,26.59,26.59,45.34,45.34h90.72l-90.7-90.7c-11.61-11.61-18.8-27.65-18.8-45.36s7.19-33.75,18.8-45.36,26.88-18.4,44.08-18.74Z"/>
</svg>